<svg id="Capa_1" enable-background="new 0 0 512 512" height="512" viewBox="0 0 512 512" width="512" xmlns="http://www.w3.org/2000/svg"><g><g><path d="m325.758 512h-107.956c-26.581 0-48.207-21.626-48.207-48.207v-22.454c0-4.204 3.408-7.612 7.612-7.612s7.612 3.407 7.612 7.612v22.454c0 18.187 14.796 32.983 32.983 32.983h107.956c18.187 0 32.983-14.796 32.983-32.983v-337.696c0-4.204 3.407-7.612 7.612-7.612s7.612 3.407 7.612 7.612v337.696c-.001 26.581-21.626 48.207-48.207 48.207z" fill="#b4c1c1"/></g><g><path d="m388.807 512h-63.049c-4.204 0-7.612-3.407-7.612-7.612 0-4.204 3.407-7.612 7.612-7.612h63.049c18.187 0 32.983-14.796 32.983-32.983v-222.09c0-4.204 3.407-7.612 7.612-7.612s7.612 3.407 7.612 7.612v222.09c-.001 26.581-21.626 48.207-48.207 48.207z" fill="#b4c1c1"/></g><path d="m201.731 441.34h-49.049c-3.866 0-7-3.134-7-7v-40.286h63.049v40.286c0 3.866-3.134 7-7 7z" fill="#445759"/><path d="m165.683 434.34v-40.286h-20v40.286c0 3.866 3.134 7 7 7h20c-3.866 0-7-3.134-7-7z" fill="#2e3a3a"/><path d="m296.304 409.816h-238.194c-3.866 0-7-3.134-7-7v-395.816c0-3.866 3.134-7 7-7h238.194c3.866 0 7 3.134 7.696 5.292v395.816c-.696 5.574-3.83 8.708-7.696 8.708z" fill="#b4ca4e"/><path d="m71.11 402.816v-395.816c0-3.866 3.134-7 7-7h-20c-3.866 0-7 3.134-7 7v395.816c0 3.866 3.134 7 7 7h20c-3.866 0-7-3.134-7-7z" fill="#9ead44"/><path d="m259.792 157.621h-165.17c-6.621 0-11.988-5.367-11.988-11.988v-102.121c0-6.621 5.367-11.988 11.988-11.988h165.17c6.621 0 11.988 5.367 11.988 11.988v102.121c0 6.621-5.367 11.988-11.988 11.988z" fill="#ebf7fc"/><path d="m102.634 145.633v-102.121c0-6.621 5.367-11.988 11.988-11.988h-20c-6.621 0-11.988 5.367-11.988 11.988v102.121c0 6.621 5.367 11.988 11.988 11.988h20c-6.62 0-11.988-5.367-11.988-11.988z" fill="#dcf2f9"/><path d="m145.701 116.924v-44.703c0-6.806 7.162-11.232 13.249-8.188l44.703 22.352c6.748 3.374 6.748 13.003 0 16.377l-44.703 22.352c-6.087 3.042-13.249-1.384-13.249-8.19z" fill="#ec5f7e"/><path d="m165.998 116.924v-44.703c0-1.529.362-2.938.991-4.169l-8.04-4.02c-6.087-3.044-13.249 1.383-13.249 8.188v44.703c0 6.806 7.162 11.232 13.249 8.188l8.04-4.02c-.629-1.229-.991-2.638-.991-4.167z" fill="#c2486a"/><path d="m177.063 189.146c-52.152 0-94.429 42.277-94.429 94.429s42.277 94.429 94.429 94.429 94.429-42.277 94.429-94.429-42.277-94.429-94.429-94.429zm0 141.841c-26.185 0-47.413-21.227-47.413-47.413s21.227-47.413 47.413-47.413 47.413 21.227 47.413 47.413-21.228 47.413-47.413 47.413z" fill="#445759"/><path d="m102.634 283.574c0-48.774 36.979-88.907 84.429-93.902-3.286-.346-6.622-.527-10-.527-52.152 0-94.429 42.277-94.429 94.429s42.277 94.429 94.429 94.429c3.378 0 6.714-.181 10-.527-47.45-4.995-84.429-45.128-84.429-93.902z" fill="#2e3a3a"/><circle cx="366.353" cy="84.262" fill="#445759" r="31.489"/><path d="m354.864 84.262c0-13.895 9-25.688 21.488-29.867-3.142-1.052-6.504-1.622-10-1.622-17.391 0-31.488 14.098-31.488 31.489s14.098 31.489 31.488 31.489c3.496 0 6.858-.57 10-1.622-12.487-4.179-21.488-15.972-21.488-29.867z" fill="#2e3a3a"/><path d="m366.353 157.621c-8.705 0-15.762-7.057-15.762-15.762v-31.524c0-8.705 7.057-15.762 15.762-15.762 8.705 0 15.762 7.057 15.762 15.762v31.524c0 8.705-7.057 15.762-15.762 15.762z" fill="#ec5f7e"/><circle cx="429.401" cy="210.215" fill="#445759" r="31.489"/><path d="m417.913 210.215c0-13.895 9-25.687 21.489-29.867-3.142-1.052-6.504-1.621-10-1.621-17.391 0-31.489 14.098-31.489 31.488s14.098 31.489 31.489 31.489c3.496 0 6.858-.57 10-1.622-12.489-4.179-21.489-15.972-21.489-29.867z" fill="#2e3a3a"/><path d="m429.401 283.574c-8.705 0-15.762-7.057-15.762-15.762v-31.524c0-8.705 7.057-15.762 15.762-15.762 8.705 0 15.762 7.057 15.762 15.762v31.524c.001 8.705-7.056 15.762-15.762 15.762z" fill="#ec5f7e"/></g></svg>